<?xml version="1.0" standalone="no"?>
<!DOCTYPE svg PUBLIC "-//W3C//DTD SVG 20010904//EN"
 "http://www.w3.org/TR/2001/REC-SVG-20010904/DTD/svg10.dtd">
<svg version="1.0" xmlns="http://www.w3.org/2000/svg"
 width="419.000000pt" height="419.000000pt" viewBox="0 0 419.000000 419.000000"
 preserveAspectRatio="xMidYMid meet">
<metadata>
Created by potrace 1.14, written by Peter Selinger 2001-2017
</metadata>
<g transform="translate(0.000000,419.000000) scale(0.100000,-0.100000)"
fill="#000000" stroke="none">
<path d="M18 3102 c-13 -3 -16 -17 -16 -71 l0 -67 29 4 29 4 2 -318 3 -319
138 0 c81 0 156 5 180 12 57 16 120 72 148 131 22 44 23 59 23 242 0 191 0
197 -25 245 -33 64 -108 122 -167 131 -45 7 -316 11 -344 6z m339 -149 c55
-25 64 -62 62 -240 -1 -174 -8 -202 -60 -228 -20 -11 -51 -15 -97 -13 l-67 3
0 240 c-1 139 3 243 9 247 17 12 121 6 153 -9z"/>
<path d="M1210 3093 c-58 -15 -96 -38 -135 -84 -52 -62 -57 -89 -58 -290 0
-171 2 -190 21 -231 47 -96 134 -152 236 -150 95 1 171 43 221 121 34 55 39
97 36 281 l-1 45 -127 0 -128 0 -3 -68 -3 -67 64 0 64 0 -3 -51 c-3 -59 -22
-92 -66 -115 -38 -20 -101 -14 -130 13 -39 36 -45 63 -46 218 0 165 8 202 54
231 33 22 103 23 134 1 22 -15 25 -14 71 31 54 52 53 59 -14 94 -58 29 -125
37 -187 21z"/>
<path d="M2240 3102 l-45 -3 1 -139 c1 -136 1 -140 -20 -140 -22 0 -22 0 -17
-123 1 -11 7 -17 19 -15 15 3 17 -9 18 -122 2 -178 28 -220 143 -223 l56 -2 0
65 c0 64 0 65 -30 70 l-30 5 -3 99 c-3 105 1 116 44 111 21 -2 22 1 22 66 l0
69 -35 0 -34 0 1 123 c1 67 1 131 1 142 -1 21 -8 23 -91 17z"/>
<path d="M642 2577 l3 -242 65 0 65 0 1 158 c2 174 7 192 56 185 23 -4 37 4
74 39 37 37 43 47 33 59 -25 31 -77 43 -189 43 l-110 1 2 -243z"/>
<path d="M1768 2803 c-198 -67 -214 -348 -26 -444 47 -24 132 -31 180 -14 26
9 38 9 41 1 4 -11 126 -18 128 -7 1 3 2 113 3 244 l2 237 -68 0 c-43 0 -68 -4
-68 -11 0 -7 -9 -9 -22 -5 -52 16 -124 15 -170 -1z m154 -152 c27 -24 32 -36
32 -74 0 -55 -30 -93 -81 -103 -86 -16 -157 71 -118 145 34 67 111 82 167 32z"/>
<path d="M2640 2811 c-48 -15 -87 -40 -119 -77 -40 -45 -52 -74 -58 -145 -6
-63 14 -121 59 -174 55 -65 172 -97 252 -70 27 10 36 10 36 1 0 -8 22 -12 68
-11 l67 1 2 242 3 242 -69 0 c-38 0 -71 -5 -73 -10 -2 -7 -15 -7 -38 0 -40 11
-94 12 -130 1z m126 -149 c55 -44 59 -109 10 -158 -71 -71 -176 -23 -176 81 0
54 44 95 102 95 26 0 52 -7 64 -18z"/>
<path d="M3125 2812 c-89 -29 -130 -124 -92 -213 24 -57 68 -82 156 -89 62 -4
76 -8 79 -22 3 -16 -7 -18 -101 -18 l-104 0 1 -67 1 -68 110 0 c129 1 166 12
204 66 36 49 39 110 9 163 -32 56 -75 78 -154 80 -71 2 -104 19 -63 34 13 5
61 8 107 7 45 0 83 2 83 5 1 3 2 33 3 68 l2 62 -110 -1 c-61 -1 -120 -4 -131
-7z"/>
<path d="M3620 2376 c0 -3 32 -38 71 -78 198 -205 329 -436 370 -651 14 -72
20 -309 9 -328 -6 -8 -37 6 -111 53 -371 232 -807 422 -1212 528 -60 16 -111
30 -113 33 -7 7 576 -9 649 -18 18 -2 70 -6 117 -10 47 -3 99 -7 115 -9 17 -2
64 -7 105 -11 41 -4 82 -8 90 -10 51 -9 120 -16 120 -12 0 20 -498 139 -675
162 -90 11 -120 16 -140 20 -11 2 -51 7 -90 10 -38 3 -83 8 -100 10 -43 6
-191 15 -324 20 -62 2 -116 7 -119 10 -3 3 8 5 24 6 16 0 38 2 49 5 11 2 40 6
65 9 25 4 53 9 63 11 10 3 31 7 48 9 58 8 114 16 169 25 60 10 110 17 180 25
25 3 56 7 69 10 13 2 49 7 80 10 31 3 65 8 76 10 21 4 151 18 173 18 6 0 12 4
12 9 0 4 -17 8 -37 9 -21 0 -56 3 -78 5 -115 14 -648 7 -825 -11 -25 -2 -70
-7 -100 -9 -72 -7 -209 -24 -290 -36 -63 -10 -91 -14 -173 -26 -188 -25 -641
-142 -922 -238 -326 -110 -389 -133 -511 -187 -112 -49 -291 -147 -244 -133
14 4 39 11 55 15 17 4 62 17 100 29 348 107 618 163 985 205 25 3 63 7 85 10
107 12 197 19 265 19 77 0 280 -12 315 -18 11 -2 47 -7 80 -11 33 -4 76 -9 95
-11 99 -12 399 -77 535 -116 342 -98 622 -208 955 -375 183 -91 219 -110 395
-211 49 -28 90 -50 91 -49 16 16 25 303 12 407 -34 283 -167 526 -409 745 -66
60 -149 128 -149 121z"/>
</g>
</svg>
